<svg width="25" height="25" viewBox="0 0 25 25" fill="none" xmlns="http://www.w3.org/2000/svg">
<path d="M1.99994 24.1669H6.6666C6.82015 24.1678 6.97235 24.1384 7.1145 24.0803C7.25664 24.0223 7.38592 23.9367 7.49494 23.8286L21.4949 9.82859C21.6043 9.72013 21.6911 9.5911 21.7503 9.44893C21.8095 9.30676 21.84 9.15427 21.84 9.00026C21.84 8.84624 21.8095 8.69375 21.7503 8.55158C21.6911 8.40941 21.6043 8.28038 21.4949 8.17192L16.8283 3.50525C16.7198 3.3959 16.5908 3.30911 16.4486 3.24988C16.3064 3.19065 16.154 3.16016 15.9999 3.16016C15.8459 3.16016 15.6934 3.19065 15.5513 3.24988C15.4091 3.30911 15.2801 3.3959 15.1716 3.50525L1.1716 17.5053C1.06348 17.6143 0.97793 17.7436 0.919872 17.8857C0.861813 18.0278 0.832384 18.1801 0.833271 18.3336V23.0003C0.833271 23.3097 0.956188 23.6064 1.17498 23.8252C1.39377 24.044 1.69052 24.1669 1.99994 24.1669ZM3.1666 18.8119L15.9999 5.97859L19.0216 9.00026L6.18827 21.8336H3.1666V18.8119Z" fill="#214251"/>
<path d="M19.1619 1.1716C19.0531 1.06282 18.924 0.976532 18.7818 0.917662C18.6397 0.858791 18.4874 0.828491 18.3335 0.828491C18.0229 0.828491 17.7249 0.95191 17.5052 1.1716C17.2855 1.39129 17.1621 1.68925 17.1621 1.99993C17.1621 2.31062 17.2855 2.60858 17.5052 2.82827L22.1719 7.49493C22.2803 7.60428 22.4094 7.69108 22.5515 7.75031C22.6937 7.80954 22.8462 7.84003 23.0002 7.84003C23.1542 7.84003 23.3067 7.80954 23.4489 7.75031C23.5911 7.69108 23.7201 7.60428 23.8285 7.49493C23.9379 7.38648 24.0247 7.25744 24.0839 7.11527C24.1432 6.9731 24.1736 6.82061 24.1736 6.6666C24.1736 6.51259 24.1432 6.3601 24.0839 6.21793C24.0247 6.07576 23.9379 5.94672 23.8285 5.83827L19.1619 1.1716Z" fill="#A3A3A3"/>
</svg>
